<?xml version="1.0" encoding="UTF-8" standalone="no"?>
<svg
   xmlns:dc="http://purl.org/dc/elements/1.1/"
   xmlns:cc="http://creativecommons.org/ns#"
   xmlns:rdf="http://www.w3.org/1999/02/22-rdf-syntax-ns#"
   xmlns:svg="http://www.w3.org/2000/svg"
   xmlns="http://www.w3.org/2000/svg"
   viewBox="0 0 666.66669 166.13333"
   height="166.13333"
   width="666.66669"
   xml:space="preserve"
   id="svg2"
   version="1.1"><metadata
     id="metadata8"><rdf:RDF><cc:Work
         rdf:about=""><dc:format>image/svg+xml</dc:format><dc:type
           rdf:resource="http://purl.org/dc/dcmitype/StillImage" /></cc:Work></rdf:RDF></metadata><defs
     id="defs6" /><g
     transform="matrix(1.3333333,0,0,-1.3333333,0,166.13333)"
     id="g10"><g
       transform="scale(0.1)"
       id="g12"><path
         id="path14"
         style="fill:#100f0d;fill-opacity:1;fill-rule:nonzero;stroke:none"
         d="m 4761.93,915.121 226.03,226.029 c 8.2,8.21 27.42,27.46 -11.48,67.51 -16.68,17.18 -31.89,25.95 -45.19,26.05 h -0.24 c -11.45,0 -19.17,-6.14 -25.21,-12.17 L 4679.28,995.977 4453.09,1223.56 c -18.28,18.3 -39.69,14.01 -67.29,-13.55 -28.07,-28.22 -32.66,-49.89 -14.45,-68.2 l 226.22,-227.564 -221.56,-221.57 -1.58,-1.547 c -5.39,-5.227 -13.53,-13.113 -13.64,-25.973 -0.1,-13.261 8.73,-28.879 26.26,-46.414 14.8,-14.812 28.82,-22.316 41.7,-22.316 h 0.01 c 14.51,0.012 23.78,9.308 29.02,14.543 l 222.4,222.41 227.42,-227.449 c 2.87,-2.86 10.88,-9.457 23.74,-9.457 h 0.46 c 14.38,0.172 29.52,8.515 45.01,24.781 25.52,26.801 29.78,49.129 12.65,66.359 z m -816.56,324.699 c -167.5,-12.74 -298.71,-160.06 -298.71,-335.394 V 350.023 c 0,-32.117 24.42,-38.691 61.07,-38.691 36.65,0 61.07,6.574 61.07,38.691 V 905.73 c 0,109.24 79.47,203.04 180.91,213.54 58.24,5.94 114.22,-12.29 157.76,-51.56 42.74,-38.52 67.26,-93.909 67.28,-151.972 0,-16.617 -8.14,-70.734 -45.28,-120.968 -28.09,-37.958 -81.3,-83.172 -175.65,-83.172 -0.51,-0.012 -1.2,0 -1.79,0 -24.21,0 -44.88,-1.141 -48.86,-58.496 -2.67,-38.594 -2.45,-55.852 30.89,-60.493 59.47,-8.25 120.11,3.375 180.2,34.606 102.61,53.383 171.35,154.535 179.43,264.004 7.02,95.078 -27.27,187.831 -94.09,254.491 -67.07,66.89 -159.69,101.15 -254.23,94.11 z M 477.48,872.383 C 357.461,889.613 240.426,857.684 145.102,784.309 V 1114.5 h 559.531 c 19.437,0 33.379,3.5 33.379,60.91 0,56.02 -22.571,58.24 -37.465,58.24 H 80.9648 c -35.9765,0 -55.0117,-29.1 -55.0117,-61.36 V 630.379 c 0,-28.414 18.0117,-38.043 51.5352,-44.68 29.3477,-5.808 46.3907,-2.414 59.2227,11.809 l 1.351,2.082 C 197.09,684.672 325.527,767.09 447.605,752.148 593.32,734.32 710.648,618.078 726.695,475.762 736.934,384.953 709.223,297.66 648.719,229.961 588.988,163.121 503.48,124.781 414.156,124.781 c -132.328,0 -247.984,85.059 -296.144,208.508 -7.129,18.277 -19.1722,31.809 -71.3011,12.856 C -1.1875,328.73 -3.96484,308.574 2.64062,290.32 65.3398,117.672 230.711,1.66016 414.137,1.66016 c 124.23,0 243.121,53.26174 326.187,146.14084 84.164,94.078 122.391,215.359 108.313,341.504 C 826.574,686.766 673.727,844.293 477.48,872.383 Z M 2896.61,132.852 c -270.27,0 -490.16,219.882 -490.16,490.148 0,270.277 219.89,490.16 490.16,490.16 270.25,0 490.12,-219.883 490.12,-490.16 0,-270.266 -219.87,-490.148 -490.12,-490.148 z m 0,1113.158 c -343.55,0 -623.04,-279.483 -623.04,-623.01 0,-343.527 279.49,-623 623.04,-623 343.53,0 623,279.473 623,623 0,343.527 -279.47,623.01 -623,623.01 z M 1548.3,132.852 c -270.27,0 -490.15,219.882 -490.15,490.148 0,270.277 219.88,490.16 490.15,490.16 270.26,0 490.13,-219.883 490.13,-490.16 0,-270.266 -219.87,-490.148 -490.13,-490.148 z m 0,1113.158 C 1204.76,1246.01 925.262,966.527 925.262,623 925.262,279.473 1204.76,0 1548.3,0 c 343.53,0 623.01,279.473 623.01,623 0,343.527 -279.48,623.01 -623.01,623.01" /></g></g></svg>