<?xml version="1.0" encoding="utf-8"?>
<!-- Generator: Adobe Illustrator 15.1.0, SVG Export Plug-In . SVG Version: 6.00 Build 0)  -->
<!DOCTYPE svg PUBLIC "-//W3C//DTD SVG 1.1//EN" "http://www.w3.org/Graphics/SVG/1.1/DTD/svg11.dtd" [
	<!ENTITY ns_flows "http://ns.adobe.com/Flows/1.0/">
	<!ENTITY ns_extend "http://ns.adobe.com/Extensibility/1.0/">
	<!ENTITY ns_ai "http://ns.adobe.com/AdobeIllustrator/10.0/">
	<!ENTITY ns_graphs "http://ns.adobe.com/Graphs/1.0/">
]>
<svg version="1.1" id="logo" xmlns:x="&ns_extend;" xmlns:i="&ns_ai;" xmlns:graph="&ns_graphs;"
	 xmlns="http://www.w3.org/2000/svg" xmlns:xlink="http://www.w3.org/1999/xlink" xmlns:a="http://ns.adobe.com/AdobeSVGViewerExtensions/3.0/"
	 x="0px" y="0px" width="720px" height="156.614px" viewBox="-294.461 -60.521 720 156.614"
	 enable-background="new -294.461 -60.521 720 156.614" xml:space="preserve">
<g>
	<g>
		
			<linearGradient id="SVGID_1_" gradientUnits="userSpaceOnUse" x1="64.9314" y1="-269.0154" x2="268.4523" y2="-269.0154" gradientTransform="matrix(1 0 0 -1 -354.5996 -251.23)">
			<stop  offset="0.0173" style="stop-color:#FDB515"/>
			<stop  offset="0.1046" style="stop-color:#FCA91D"/>
			<stop  offset="0.2628" style="stop-color:#F98932"/>
			<stop  offset="0.4741" style="stop-color:#F45454"/>
			<stop  offset="0.7279" style="stop-color:#ED0D83"/>
			<stop  offset="0.7715" style="stop-color:#EC008C"/>
			<a:midPointStop  offset="0.0173" style="stop-color:#FDB515"/>
			<a:midPointStop  offset="0.5" style="stop-color:#FDB515"/>
			<a:midPointStop  offset="0.1046" style="stop-color:#FCA91D"/>
			<a:midPointStop  offset="0.5" style="stop-color:#FCA91D"/>
			<a:midPointStop  offset="0.2628" style="stop-color:#F98932"/>
			<a:midPointStop  offset="0.5" style="stop-color:#F98932"/>
			<a:midPointStop  offset="0.4741" style="stop-color:#F45454"/>
			<a:midPointStop  offset="0.5" style="stop-color:#F45454"/>
			<a:midPointStop  offset="0.7279" style="stop-color:#ED0D83"/>
			<a:midPointStop  offset="0.5" style="stop-color:#ED0D83"/>
			<a:midPointStop  offset="0.7715" style="stop-color:#EC008C"/>
		</linearGradient>
		<path fill="url(#SVGID_1_)" d="M-179.847-58.955h-90.1l8.88,30.688h81.22c8.468,0,15.35,6.887,15.35,15.35v15.35h-76.721
			c-25.389,0-46.043,20.655-46.043,46.045c0,25.388,20.654,46.049,46.043,46.049h61.371c25.389,0,46.044-20.661,46.044-46.049
			V17.782V2.432v-15.35C-133.803-38.3-154.458-58.955-179.847-58.955z M-164.497,48.477c0,8.463-6.887,15.349-15.35,15.349h-61.371
			c-8.462,0-15.349-6.886-15.349-15.349c0-8.464,6.887-15.351,15.349-15.351h76.721V48.477z"/>
		<polygon fill="#EC008C" points="-89.884,2.438 -117.859,2.438 -117.859,33.127 -80.998,33.127 		"/>
	</g>
	<g>
		<path fill="#302E45" d="M22.094,48.717H8.674v-7.391c-4.243,5.46-10.593,8.989-19.313,8.989c-17.2,0-30.745-13.546-30.745-32.345
			c0-18.804,13.545-32.35,30.745-32.35c8.726,0,15.076,3.598,19.313,9.051v-7.441h13.42V48.717z M-27.582,17.977
			c0,10.781,6.995,19.7,18.548,19.7c11.107,0,18.542-8.474,18.542-19.7c0-11.233-7.435-19.708-18.542-19.708
			C-20.587-1.731-27.582,7.195-27.582,17.977z"/>
		<path fill="#302E45" d="M137.657,10.079v38.643H124.18V14.51c0-10.336-5.322-16.109-14.311-16.109
			c-8.663,0-15.91,5.71-15.91,16.235v34.081H80.466V14.505c0-10.336-5.315-16.115-14.305-16.115c-8.663,0-15.92,5.716-15.92,16.241
			v34.08H36.758v-61.479h13.351v7.504c4.946-7.247,12.575-9.114,18.875-9.114c9.37,0,17.005,4.168,21.248,10.976
			c5.316-8.795,14.817-10.976,22.454-10.976C127.339-14.374,137.657-4.301,137.657,10.079z"/>
		<path fill="#302E45" d="M290.971,17.977c0,18.417-14.11,32.344-33.104,32.344c-18.992,0-33.052-13.928-33.052-32.344
			c0-18.422,14.06-32.351,33.052-32.351C276.861-14.374,290.971-0.446,290.971,17.977z M238.612,17.977
			c0,11.615,8.28,19.7,19.256,19.7s19.313-8.085,19.313-19.7c0-11.621-8.337-19.708-19.313-19.708S238.612,6.356,238.612,17.977z"/>
		<path fill="#302E45" d="M355.707-4.557l-8.601,9.177c-4.306-4.043-8.857-6.351-14.757-6.351c-10.336,0-18.164,8.086-18.164,19.708
			c0,11.615,7.835,19.7,18.164,19.7c5.911,0,11.159-2.768,15.076-6.422l8.281,9.238c-5.585,6.486-13.791,9.828-22.98,9.828
			c-19.58,0-32.343-13.928-32.343-32.344c0-18.422,12.768-32.351,32.343-32.351C341.916-14.374,350.253-11.033,355.707-4.557z"/>
		<path fill="#302E45" d="M411.086,2.638c-3.723-2.318-11.346-5.265-18.992-5.265c-7.32,0-11.609,2.946-11.609,7.315
			c0,4.3,4.488,5.522,10.136,6.35l6.35,0.959c13.426,1.93,21.369,7.646,21.369,18.171c0,11.81-10.268,20.079-27.98,20.079
			c-6.351,0-17.396-1.212-26.372-7.893l6.225-10.074c4.431,3.404,10.268,6.288,20.271,6.288c9.184,0,13.992-2.884,13.992-7.509
			c0-3.468-3.329-5.769-10.64-6.796l-6.424-0.84c-13.613-1.855-20.861-8.155-20.861-18.04c0-12.191,9.766-19.701,25.424-19.701
			c9.623,0,18.548,2.375,24.898,6.481L411.086,2.638z"/>
		<path fill="#302E45" d="M199.141-5.339v-22.62l13.42-4.751v81.431h-13.42v-7.389c-4.243,5.46-10.593,8.988-19.33,8.988
			c-17.194,0-30.746-13.545-30.746-32.356c0-18.811,13.546-32.356,30.746-32.356C188.549-14.396,194.898-10.799,199.141-5.339z
			 M162.869,17.965c0,10.792,6.995,19.711,18.558,19.711c11.097,0,18.55-8.474,18.55-19.711c0-11.232-7.448-19.707-18.55-19.707
			C169.864-1.741,162.869,7.183,162.869,17.965z"/>
	</g>
</g>
</svg>
