<?xml version="1.0" encoding="UTF-8" standalone="no"?>
<!-- Created with Inkscape (http://www.inkscape.org/) -->

<svg
   xmlns:dc="http://purl.org/dc/elements/1.1/"
   xmlns:cc="http://creativecommons.org/ns#"
   xmlns:rdf="http://www.w3.org/1999/02/22-rdf-syntax-ns#"
   xmlns:svg="http://www.w3.org/2000/svg"
   xmlns="http://www.w3.org/2000/svg"
   xmlns:sodipodi="http://sodipodi.sourceforge.net/DTD/sodipodi-0.dtd"
   xmlns:inkscape="http://www.inkscape.org/namespaces/inkscape"
   width="767.53607"
   height="105.48341"
   viewBox="0 0 203.07725 27.909152"
   version="1.1"
   id="svg8"
   inkscape:version="0.92.4 (5da689c313, 2019-01-14)"
   sodipodi:docname="dbrand logo.svg">
  <defs
     id="defs2" />
  <sodipodi:namedview
     id="base"
     pagecolor="#ffffff"
     bordercolor="#666666"
     borderopacity="1.0"
     inkscape:pageopacity="0.0"
     inkscape:pageshadow="2"
     inkscape:zoom="0.98994949"
     inkscape:cx="441.04545"
     inkscape:cy="43.749712"
     inkscape:document-units="mm"
     inkscape:current-layer="layer1"
     showgrid="false"
     units="px"
     inkscape:window-width="1920"
     inkscape:window-height="1017"
     inkscape:window-x="-8"
     inkscape:window-y="176"
     inkscape:window-maximized="1" />
  <metadata
     id="metadata5">
    <rdf:RDF>
      <cc:Work
         rdf:about="">
        <dc:format>image/svg+xml</dc:format>
        <dc:type
           rdf:resource="http://purl.org/dc/dcmitype/StillImage" />
        <dc:title></dc:title>
      </cc:Work>
    </rdf:RDF>
  </metadata>
  <g
     inkscape:label="Layer 1"
     inkscape:groupmode="layer"
     id="layer1"
     transform="translate(11.095622,-48.484987)">
    <g
       style="font-style:normal;font-variant:normal;font-weight:normal;font-stretch:normal;font-size:27.90915298px;line-height:1.25;font-family:db-icons;-inkscape-font-specification:db-icons;letter-spacing:0px;word-spacing:0px;fill:#ffbb00;fill-opacity:1;stroke:none;stroke-width:2.09318638"
       id="text817">
      <path
         d="m 87.59485,60.313671 h 0.05451 V 55.407766 H 71.596146 c -1.035692,0 -1.907853,0.38157 -2.616483,1.090201 -0.708631,0.708631 -1.062947,1.580792 -1.062947,2.589228 V 76.33963 h 4.905906 V 61.867208 c 0,-0.408825 0.136275,-0.763141 0.463336,-1.090201 0.299805,-0.299805 0.65412,-0.463336 1.090201,-0.463336 z M 110.29829,76.39414 H 94.217822 c -1.035691,0 -1.907852,-0.354315 -2.616483,-1.062946 -0.708631,-0.708631 -1.062946,-1.580792 -1.062946,-2.616483 V 59.087195 c 0,-1.008436 0.354315,-1.880597 1.062946,-2.589228 0.708631,-0.708631 1.580792,-1.090201 2.616483,-1.090201 H 120.19187 V 76.33963 h -4.93316 V 60.313671 H 97.052346 c -0.436081,0 -0.790396,0.163531 -1.090202,0.463336 -0.299805,0.32706 -0.43608,0.681376 -0.43608,1.090201 v 8.06749 c 0,0.43608 0.136275,0.790396 0.43608,1.090201 0.299806,0.299805 0.654121,0.436081 1.090202,0.436081 h 13.245944 z m 14.30889,0 h -0.0272 V 55.407766 h 25.94679 c 1.03569,0 1.90785,0.38157 2.61648,1.090201 0.70863,0.708631 1.0902,1.580792 1.0902,2.589228 V 76.33963 h -4.93316 V 61.867208 c 0,-0.408825 -0.16353,-0.763141 -0.46333,-1.090201 -0.32706,-0.299805 -0.68138,-0.463336 -1.0902,-0.463336 H 129.54034 V 76.39414 Z m 62.44128,-16.080469 v 9.566517 c 0,0.43608 -0.16353,0.790396 -0.46333,1.090201 -0.29981,0.299805 -0.65412,0.436081 -1.06295,0.436081 h -20.35951 c -0.43608,0 -0.79039,-0.136276 -1.0902,-0.436081 -0.32706,-0.299805 -0.46334,-0.654121 -0.46334,-1.090201 v -8.01298 c 0,-0.408825 0.13628,-0.763141 0.46334,-1.090201 0.29981,-0.299805 0.65412,-0.463336 1.0902,-0.463336 z m 4.93316,12.40104 V 48.484987 h -4.93316 v 6.922779 h -24.72031 c -1.03569,0 -1.90785,0.38157 -2.61649,1.090201 -0.70863,0.708631 -1.06294,1.580792 -1.06294,2.589228 v 13.627516 c 0,1.035691 0.35431,1.907852 1.06294,2.616483 0.70864,0.708631 1.5808,1.062946 2.61649,1.062946 h 25.97404 c 1.00844,0 1.8806,-0.354315 2.58923,-1.062946 0.70863,-0.708631 1.0902,-1.580792 1.0902,-2.616483 z M 25.916712,60.313671 h 30.498381 c 0.408825,0 0.763141,0.163531 1.090201,0.463336 0.299805,0.32706 0.463336,0.681376 0.463336,1.090201 v 8.01298 c 0,0.43608 -0.163531,0.790396 -0.463336,1.090201 -0.32706,0.299805 -0.681376,0.436081 -1.090201,0.436081 H 36.055584 c -0.436081,0 -0.790396,-0.136276 -1.090202,-0.436081 -0.299805,-0.299805 -0.43608,-0.654121 -0.43608,-1.090201 v -5.832577 h -4.933161 v 8.6671 c 0,1.035691 0.354315,1.907852 1.062946,2.616483 0.708631,0.708631 1.580792,1.062946 2.616483,1.062946 h 25.974046 c 1.008436,0 1.880597,-0.354315 2.589228,-1.062946 0.708631,-0.708631 1.090201,-1.580792 1.090201,-2.616483 V 59.087195 c 0,-1.008436 -0.38157,-1.880597 -1.090201,-2.589228 -0.708631,-0.708631 -1.580792,-1.090201 -2.589228,-1.090201 H 34.529302 v -6.922779 h -4.933161 v 6.922779 h -7.358859 v -6.922779 h -4.987671 v 6.922779 H -7.4161927 c -1.0356912,0 -1.9078523,0.38157 -2.6164833,1.090201 -0.708631,0.708631 -1.062946,1.580792 -1.062946,2.589228 v 13.627516 c 0,1.035691 0.354315,1.907852 1.062946,2.616483 0.708631,0.708631 1.5807921,1.062946 2.6164833,1.062946 H 18.557853 c 1.008436,0 1.880597,-0.354315 2.589228,-1.062946 0.708631,-0.708631 1.090201,-1.580792 1.090201,-2.616483 v -8.6671 h -4.987671 v 5.832577 c 0,0.43608 -0.16353,0.790396 -0.463335,1.090201 -0.299805,0.299805 -0.654121,0.436081 -1.062946,0.436081 H -4.6361794 c -0.4360805,0 -0.790396,-0.136276 -1.0902013,-0.436081 -0.2998054,-0.299805 -0.4360805,-0.654121 -0.4360805,-1.090201 v -8.01298 c 0,-0.408825 0.1362751,-0.763141 0.4360805,-1.090201 0.2998053,-0.299805 0.6541208,-0.463336 1.0902013,-0.463336 z"
         style="fill:#ffbb00;fill-opacity:1;stroke-width:2.09318638"
         id="path819" />
    </g>
  </g>
</svg>
